<mxfile host="app.diagrams.net" modified="2022-11-24T03:01:11.173Z" agent="5.0 (Windows NT 10.0; Win64; x64) AppleWebKit/537.36 (KHTML, like Gecko) Chrome/106.0.0.0 Safari/537.36 OPR/92.0.0.0" etag="INxfadFlQhPhtcdr7oB4" version="20.5.1" type="github">
  <diagram id="C5RBs43oDa-KdzZeNtuy" name="Page-1">
    <mxGraphModel dx="998" dy="548" grid="1" gridSize="10" guides="1" tooltips="1" connect="1" arrows="1" fold="1" page="1" pageScale="1" pageWidth="1169" pageHeight="827" math="0" shadow="0">
      <root>
        <mxCell id="WIyWlLk6GJQsqaUBKTNV-0" />
        <mxCell id="WIyWlLk6GJQsqaUBKTNV-1" parent="WIyWlLk6GJQsqaUBKTNV-0" />
        <mxCell id="V7hTzxYA86uIfPX5H81l-7" style="edgeStyle=orthogonalEdgeStyle;rounded=0;orthogonalLoop=1;jettySize=auto;html=1;exitX=1;exitY=0.5;exitDx=0;exitDy=0;fontFamily=Helvetica;entryX=0;entryY=0.5;entryDx=0;entryDy=0;" parent="WIyWlLk6GJQsqaUBKTNV-1" source="V7hTzxYA86uIfPX5H81l-0" target="V7hTzxYA86uIfPX5H81l-9" edge="1">
          <mxGeometry relative="1" as="geometry">
            <mxPoint x="620.0000000000002" y="179.66666666666674" as="targetPoint" />
          </mxGeometry>
        </mxCell>
        <mxCell id="bkuHiJLz3leUCbv7lqw5-18" value="TTL" style="edgeLabel;html=1;align=center;verticalAlign=middle;resizable=0;points=[];" parent="V7hTzxYA86uIfPX5H81l-7" vertex="1" connectable="0">
          <mxGeometry x="0.3043" relative="1" as="geometry">
            <mxPoint x="-16" as="offset" />
          </mxGeometry>
        </mxCell>
        <mxCell id="V7hTzxYA86uIfPX5H81l-14" style="edgeStyle=orthogonalEdgeStyle;rounded=0;orthogonalLoop=1;jettySize=auto;html=1;exitX=0.5;exitY=1;exitDx=0;exitDy=0;entryX=0.5;entryY=0;entryDx=0;entryDy=0;fontFamily=Helvetica;" parent="WIyWlLk6GJQsqaUBKTNV-1" source="V7hTzxYA86uIfPX5H81l-0" target="V7hTzxYA86uIfPX5H81l-13" edge="1">
          <mxGeometry relative="1" as="geometry" />
        </mxCell>
        <mxCell id="V7hTzxYA86uIfPX5H81l-0" value="&lt;p&gt;&lt;span style=&quot;color: rgb(32, 33, 34); font-size: 14px; text-align: start;&quot;&gt;Î¼&lt;/span&gt;Controlador&lt;/p&gt;" style="rounded=1;whiteSpace=wrap;html=1;fontSize=12;glass=0;strokeWidth=1;shadow=0;fillColor=#f5f5f5;strokeColor=#666666;gradientColor=#b3b3b3;" parent="WIyWlLk6GJQsqaUBKTNV-1" vertex="1">
          <mxGeometry x="350" y="142.5" width="120" height="75" as="geometry" />
        </mxCell>
        <mxCell id="V7hTzxYA86uIfPX5H81l-2" style="edgeStyle=orthogonalEdgeStyle;rounded=0;orthogonalLoop=1;jettySize=auto;html=1;entryX=0;entryY=0.5;entryDx=0;entryDy=0;exitX=1;exitY=0.5;exitDx=0;exitDy=0;" parent="WIyWlLk6GJQsqaUBKTNV-1" target="V7hTzxYA86uIfPX5H81l-0" edge="1">
          <mxGeometry relative="1" as="geometry">
            <mxPoint x="260" y="180.0000000000001" as="sourcePoint" />
          </mxGeometry>
        </mxCell>
        <mxCell id="V7hTzxYA86uIfPX5H81l-5" value="0-5V" style="edgeStyle=orthogonalEdgeStyle;rounded=0;orthogonalLoop=1;jettySize=auto;html=1;exitX=1;exitY=0.5;exitDx=0;exitDy=0;entryX=0.5;entryY=0;entryDx=0;entryDy=0;fontFamily=Helvetica;" parent="WIyWlLk6GJQsqaUBKTNV-1" source="V7hTzxYA86uIfPX5H81l-4" target="bkuHiJLz3leUCbv7lqw5-0" edge="1">
          <mxGeometry relative="1" as="geometry">
            <mxPoint x="180" y="180.0000000000001" as="targetPoint" />
          </mxGeometry>
        </mxCell>
        <mxCell id="V7hTzxYA86uIfPX5H81l-4" value="Sensor" style="ellipse;whiteSpace=wrap;html=1;fillColor=#bac8d3;strokeColor=#23445d;" parent="WIyWlLk6GJQsqaUBKTNV-1" vertex="1">
          <mxGeometry x="65" y="165" width="50" height="30" as="geometry" />
        </mxCell>
        <mxCell id="V7hTzxYA86uIfPX5H81l-6" value="Ventilador" style="rhombus;whiteSpace=wrap;html=1;fontFamily=Helvetica;fillColor=#d0cee2;strokeColor=#56517e;" parent="WIyWlLk6GJQsqaUBKTNV-1" vertex="1">
          <mxGeometry x="730" y="140" width="80" height="80" as="geometry" />
        </mxCell>
        <mxCell id="V7hTzxYA86uIfPX5H81l-11" style="edgeStyle=orthogonalEdgeStyle;rounded=0;orthogonalLoop=1;jettySize=auto;html=1;exitX=1;exitY=0.5;exitDx=0;exitDy=0;entryX=0;entryY=0.5;entryDx=0;entryDy=0;fontFamily=Helvetica;" parent="WIyWlLk6GJQsqaUBKTNV-1" source="V7hTzxYA86uIfPX5H81l-9" target="V7hTzxYA86uIfPX5H81l-6" edge="1">
          <mxGeometry relative="1" as="geometry" />
        </mxCell>
        <mxCell id="V7hTzxYA86uIfPX5H81l-9" value="Acionamento" style="rounded=0;whiteSpace=wrap;html=1;fillColor=#b0e3e6;strokeColor=#0e8088;" parent="WIyWlLk6GJQsqaUBKTNV-1" vertex="1">
          <mxGeometry x="570" y="165" width="80" height="30" as="geometry" />
        </mxCell>
        <mxCell id="V7hTzxYA86uIfPX5H81l-13" value="LCD" style="rounded=0;whiteSpace=wrap;html=1;fontFamily=Helvetica;fillColor=#d5e8d4;strokeColor=#82b366;" parent="WIyWlLk6GJQsqaUBKTNV-1" vertex="1">
          <mxGeometry x="350" y="280" width="120" height="40" as="geometry" />
        </mxCell>
        <mxCell id="bkuHiJLz3leUCbv7lqw5-7" value="" style="edgeStyle=orthogonalEdgeStyle;rounded=0;orthogonalLoop=1;jettySize=auto;html=1;" parent="WIyWlLk6GJQsqaUBKTNV-1" source="V7hTzxYA86uIfPX5H81l-15" target="V7hTzxYA86uIfPX5H81l-0" edge="1">
          <mxGeometry relative="1" as="geometry">
            <Array as="points">
              <mxPoint x="360" y="111" />
              <mxPoint x="380" y="111" />
            </Array>
          </mxGeometry>
        </mxCell>
        <mxCell id="V7hTzxYA86uIfPX5H81l-15" value="B1" style="ellipse;whiteSpace=wrap;html=1;aspect=fixed;fontFamily=Helvetica;fillColor=#fad9d5;strokeColor=#ae4132;" parent="WIyWlLk6GJQsqaUBKTNV-1" vertex="1">
          <mxGeometry x="345" y="50" width="30" height="30" as="geometry" />
        </mxCell>
        <mxCell id="bkuHiJLz3leUCbv7lqw5-3" value="" style="edgeStyle=orthogonalEdgeStyle;rounded=0;orthogonalLoop=1;jettySize=auto;html=1;" parent="WIyWlLk6GJQsqaUBKTNV-1" source="bkuHiJLz3leUCbv7lqw5-0" target="V7hTzxYA86uIfPX5H81l-0" edge="1">
          <mxGeometry relative="1" as="geometry" />
        </mxCell>
        <mxCell id="bkuHiJLz3leUCbv7lqw5-17" value="SPI" style="edgeLabel;html=1;align=center;verticalAlign=middle;resizable=0;points=[];" parent="bkuHiJLz3leUCbv7lqw5-3" vertex="1" connectable="0">
          <mxGeometry x="-0.2158" relative="1" as="geometry">
            <mxPoint as="offset" />
          </mxGeometry>
        </mxCell>
        <mxCell id="bkuHiJLz3leUCbv7lqw5-0" value="ADC" style="shape=trapezoid;perimeter=trapezoidPerimeter;whiteSpace=wrap;html=1;fixedSize=1;rotation=-90;size=12.5;fillColor=#dae8fc;strokeColor=#6c8ebf;" parent="WIyWlLk6GJQsqaUBKTNV-1" vertex="1">
          <mxGeometry x="190" y="157.5" width="70" height="45" as="geometry" />
        </mxCell>
        <mxCell id="bkuHiJLz3leUCbv7lqw5-8" value="" style="edgeStyle=orthogonalEdgeStyle;rounded=0;orthogonalLoop=1;jettySize=auto;html=1;" parent="WIyWlLk6GJQsqaUBKTNV-1" source="bkuHiJLz3leUCbv7lqw5-5" target="V7hTzxYA86uIfPX5H81l-0" edge="1">
          <mxGeometry relative="1" as="geometry" />
        </mxCell>
        <mxCell id="bkuHiJLz3leUCbv7lqw5-5" value="B2" style="ellipse;whiteSpace=wrap;html=1;aspect=fixed;fontFamily=Helvetica;fillColor=#fad9d5;strokeColor=#ae4132;" parent="WIyWlLk6GJQsqaUBKTNV-1" vertex="1">
          <mxGeometry x="395" y="50" width="30" height="30" as="geometry" />
        </mxCell>
        <mxCell id="bkuHiJLz3leUCbv7lqw5-9" value="" style="edgeStyle=orthogonalEdgeStyle;rounded=0;orthogonalLoop=1;jettySize=auto;html=1;" parent="WIyWlLk6GJQsqaUBKTNV-1" source="bkuHiJLz3leUCbv7lqw5-6" target="V7hTzxYA86uIfPX5H81l-0" edge="1">
          <mxGeometry relative="1" as="geometry">
            <Array as="points">
              <mxPoint x="460" y="111" />
              <mxPoint x="440" y="111" />
            </Array>
          </mxGeometry>
        </mxCell>
        <mxCell id="bkuHiJLz3leUCbv7lqw5-6" value="B3" style="ellipse;whiteSpace=wrap;html=1;aspect=fixed;fontFamily=Helvetica;fillColor=#fad9d5;strokeColor=#ae4132;" parent="WIyWlLk6GJQsqaUBKTNV-1" vertex="1">
          <mxGeometry x="445" y="50" width="30" height="30" as="geometry" />
        </mxCell>
        <mxCell id="bkuHiJLz3leUCbv7lqw5-11" value="" style="edgeStyle=orthogonalEdgeStyle;rounded=0;orthogonalLoop=1;jettySize=auto;html=1;fillColor=#f8cecc;gradientColor=#ea6b66;strokeColor=#b85450;" parent="WIyWlLk6GJQsqaUBKTNV-1" source="bkuHiJLz3leUCbv7lqw5-10" target="V7hTzxYA86uIfPX5H81l-4" edge="1">
          <mxGeometry relative="1" as="geometry" />
        </mxCell>
        <mxCell id="bkuHiJLz3leUCbv7lqw5-12" style="edgeStyle=orthogonalEdgeStyle;rounded=0;orthogonalLoop=1;jettySize=auto;html=1;exitX=1;exitY=0.5;exitDx=0;exitDy=0;entryX=0;entryY=0.5;entryDx=0;entryDy=0;fillColor=#f8cecc;gradientColor=#ea6b66;strokeColor=#b85450;" parent="WIyWlLk6GJQsqaUBKTNV-1" source="bkuHiJLz3leUCbv7lqw5-10" target="bkuHiJLz3leUCbv7lqw5-0" edge="1">
          <mxGeometry relative="1" as="geometry" />
        </mxCell>
        <mxCell id="bkuHiJLz3leUCbv7lqw5-13" style="edgeStyle=orthogonalEdgeStyle;rounded=0;orthogonalLoop=1;jettySize=auto;html=1;entryX=0.5;entryY=1;entryDx=0;entryDy=0;fillColor=#f8cecc;gradientColor=#ea6b66;strokeColor=#b85450;" parent="WIyWlLk6GJQsqaUBKTNV-1" source="bkuHiJLz3leUCbv7lqw5-10" target="V7hTzxYA86uIfPX5H81l-13" edge="1">
          <mxGeometry relative="1" as="geometry" />
        </mxCell>
        <mxCell id="bkuHiJLz3leUCbv7lqw5-14" style="edgeStyle=orthogonalEdgeStyle;rounded=0;orthogonalLoop=1;jettySize=auto;html=1;entryX=0;entryY=0.75;entryDx=0;entryDy=0;fillColor=#f8cecc;gradientColor=#ea6b66;strokeColor=#b85450;" parent="WIyWlLk6GJQsqaUBKTNV-1" source="bkuHiJLz3leUCbv7lqw5-10" target="V7hTzxYA86uIfPX5H81l-0" edge="1">
          <mxGeometry relative="1" as="geometry">
            <mxPoint x="310" y="200" as="targetPoint" />
            <Array as="points">
              <mxPoint x="320" y="340" />
              <mxPoint x="320" y="199" />
            </Array>
          </mxGeometry>
        </mxCell>
        <mxCell id="bkuHiJLz3leUCbv7lqw5-10" value="AlimentaÃ§Ã£o" style="rounded=0;whiteSpace=wrap;html=1;fontFamily=Helvetica;fillColor=#fff2cc;strokeColor=#d6b656;gradientColor=#ffd966;" parent="WIyWlLk6GJQsqaUBKTNV-1" vertex="1">
          <mxGeometry x="47.5" y="320" width="85" height="40" as="geometry" />
        </mxCell>
        <mxCell id="bkuHiJLz3leUCbv7lqw5-20" value="Sensores de &lt;br&gt;temperatura, &lt;br&gt;anexados Ã s &lt;br&gt;workstations" style="text;html=1;align=center;verticalAlign=middle;resizable=0;points=[];autosize=1;fillColor=none;fontColor=#333333;strokeColor=#666666;" parent="WIyWlLk6GJQsqaUBKTNV-1" vertex="1">
          <mxGeometry x="42.5" y="87.5" width="90" height="70" as="geometry" />
        </mxCell>
        <mxCell id="bkuHiJLz3leUCbv7lqw5-21" value="AlimentaÃ§Ã£o do sistema,&lt;br&gt;converte entrada AC em DC" style="text;html=1;align=center;verticalAlign=middle;resizable=0;points=[];autosize=1;strokeColor=#666666;fillColor=none;fontColor=#333333;" parent="WIyWlLk6GJQsqaUBKTNV-1" vertex="1">
          <mxGeometry x="110" y="374" width="170" height="40" as="geometry" />
        </mxCell>
        <mxCell id="bkuHiJLz3leUCbv7lqw5-22" value="BotÃµes para configurar setpoints de temperatura" style="text;html=1;align=center;verticalAlign=middle;resizable=0;points=[];autosize=1;strokeColor=#666666;fillColor=none;fontColor=#333333;" parent="WIyWlLk6GJQsqaUBKTNV-1" vertex="1">
          <mxGeometry x="280" y="10" width="280" height="30" as="geometry" />
        </mxCell>
        <mxCell id="bkuHiJLz3leUCbv7lqw5-23" value="ADC digitaliza medidas&lt;br&gt;dos sensores e &lt;br&gt;comunica-se&lt;br&gt;com micro controlador &lt;br&gt;via SPI" style="text;html=1;align=center;verticalAlign=middle;resizable=0;points=[];autosize=1;fillColor=none;fontColor=#333333;strokeColor=#666666;" parent="WIyWlLk6GJQsqaUBKTNV-1" vertex="1">
          <mxGeometry x="150" y="52.5" width="150" height="90" as="geometry" />
        </mxCell>
        <mxCell id="bkuHiJLz3leUCbv7lqw5-24" value="Display mostra temperaturas medidas&amp;nbsp;&lt;br&gt;e, caso botÃµes sejam pressionados,&lt;br&gt;valor do setpoint" style="text;html=1;align=center;verticalAlign=middle;resizable=0;points=[];autosize=1;strokeColor=#666666;fillColor=none;fontColor=#333333;" parent="WIyWlLk6GJQsqaUBKTNV-1" vertex="1">
          <mxGeometry x="295" y="354" width="230" height="60" as="geometry" />
        </mxCell>
        <mxCell id="bkuHiJLz3leUCbv7lqw5-25" value="Circuito de acionamento &lt;br&gt;para interface entre &lt;br&gt;micro controlador e ventiladores" style="text;html=1;align=center;verticalAlign=middle;resizable=0;points=[];autosize=1;strokeColor=#666666;fillColor=none;fontColor=#333333;" parent="WIyWlLk6GJQsqaUBKTNV-1" vertex="1">
          <mxGeometry x="510" y="92.5" width="190" height="60" as="geometry" />
        </mxCell>
        <mxCell id="bkuHiJLz3leUCbv7lqw5-26" value="Ventiladores anexados ao rack onde&amp;nbsp;&lt;br&gt;as workstations estÃ£o instaladas." style="text;html=1;align=center;verticalAlign=middle;resizable=0;points=[];autosize=1;strokeColor=#666666;fillColor=none;fontColor=#333333;" parent="WIyWlLk6GJQsqaUBKTNV-1" vertex="1">
          <mxGeometry x="675" y="230" width="220" height="40" as="geometry" />
        </mxCell>
        <mxCell id="Mhm_UfKuMBlHpQhpypHg-5" style="edgeStyle=orthogonalEdgeStyle;rounded=0;orthogonalLoop=1;jettySize=auto;html=1;entryX=0.5;entryY=1;entryDx=0;entryDy=0;" edge="1" parent="WIyWlLk6GJQsqaUBKTNV-1" source="Mhm_UfKuMBlHpQhpypHg-3" target="bkuHiJLz3leUCbv7lqw5-10">
          <mxGeometry relative="1" as="geometry" />
        </mxCell>
        <mxCell id="Mhm_UfKuMBlHpQhpypHg-6" style="edgeStyle=orthogonalEdgeStyle;rounded=0;orthogonalLoop=1;jettySize=auto;html=1;entryX=0.5;entryY=1;entryDx=0;entryDy=0;" edge="1" parent="WIyWlLk6GJQsqaUBKTNV-1" source="Mhm_UfKuMBlHpQhpypHg-3" target="V7hTzxYA86uIfPX5H81l-9">
          <mxGeometry relative="1" as="geometry" />
        </mxCell>
        <mxCell id="Mhm_UfKuMBlHpQhpypHg-3" value="Fonte AC" style="rounded=0;whiteSpace=wrap;html=1;fontFamily=Helvetica;fillColor=#f8cecc;strokeColor=#b85450;" vertex="1" parent="WIyWlLk6GJQsqaUBKTNV-1">
          <mxGeometry x="47.5" y="450" width="85" height="40" as="geometry" />
        </mxCell>
      </root>
    </mxGraphModel>
  </diagram>
</mxfile>
